# xmcd
#
# Track frame offsets:
#  150
#  13587
#  30575
#  48702
#
# Disc length: 827 seconds
#
# Revision: 0
# Processed by: cddbd v1.5.1PL2 Copyright (c) Steve Scherf et al.
# Submitted via: Collectorz.com_Music_Collector 6.11
#
DISCID=2a033904
DTITLE=Edenbridge - For Your Eyes Only
DYEAR=2006
DGENRE=
TTITLE0=For Your Eyes Only
TTITLE1=Evermore
TTITLE2=The Grand Design (Edit version)
TTITLE3=For Your Eyes Only (Acoustic version)
EXTD=
EXTT0=
EXTT1=
EXTT2=
EXTT3=
PLAYORDER=
